<mxfile host="65bd71144e" pages="2">
    <diagram id="CgaYmupAktJqxWG7yCZ0" name="ERD">
        <mxGraphModel dx="2336" dy="811" grid="1" gridSize="10" guides="1" tooltips="1" connect="1" arrows="1" fold="1" page="1" pageScale="1" pageWidth="1169" pageHeight="827" background="#EEEEEE" math="0" shadow="0">
            <root>
                <mxCell id="kAJtJlJrq_F0AdrBs6Tl-0"/>
                <mxCell id="kAJtJlJrq_F0AdrBs6Tl-1" parent="kAJtJlJrq_F0AdrBs6Tl-0"/>
                <mxCell id="Nlh6Y8Wzobsq57K7iVmR-114" value="Room" style="shape=table;startSize=30;container=1;collapsible=1;childLayout=tableLayout;fixedRows=1;rowLines=0;fontStyle=1;align=center;resizeLast=1;fillColor=#F5AB50;strokeColor=#909090;fontColor=#1A1A1A;" parent="kAJtJlJrq_F0AdrBs6Tl-1" vertex="1">
                    <mxGeometry x="660" y="50" width="180" height="160" as="geometry"/>
                </mxCell>
                <mxCell id="Nlh6Y8Wzobsq57K7iVmR-115" value="" style="shape=partialRectangle;collapsible=0;dropTarget=0;pointerEvents=0;fillColor=none;top=0;left=0;bottom=1;right=0;points=[[0,0.5],[1,0.5]];portConstraint=eastwest;strokeColor=#909090;fontColor=#1A1A1A;" parent="Nlh6Y8Wzobsq57K7iVmR-114" vertex="1">
                    <mxGeometry y="30" width="180" height="30" as="geometry"/>
                </mxCell>
                <mxCell id="Nlh6Y8Wzobsq57K7iVmR-116" value="PK" style="shape=partialRectangle;connectable=0;fillColor=none;top=0;left=0;bottom=0;right=0;fontStyle=1;overflow=hidden;strokeColor=#909090;fontColor=#1A1A1A;" parent="Nlh6Y8Wzobsq57K7iVmR-115" vertex="1">
                    <mxGeometry width="30" height="30" as="geometry"/>
                </mxCell>
                <mxCell id="Nlh6Y8Wzobsq57K7iVmR-117" value="RoomID" style="shape=partialRectangle;connectable=0;fillColor=none;top=0;left=0;bottom=0;right=0;align=left;spacingLeft=6;fontStyle=5;overflow=hidden;strokeColor=#909090;fontColor=#1A1A1A;" parent="Nlh6Y8Wzobsq57K7iVmR-115" vertex="1">
                    <mxGeometry x="30" width="150" height="30" as="geometry"/>
                </mxCell>
                <mxCell id="Nlh6Y8Wzobsq57K7iVmR-118" value="" style="shape=partialRectangle;collapsible=0;dropTarget=0;pointerEvents=0;fillColor=none;top=0;left=0;bottom=0;right=0;points=[[0,0.5],[1,0.5]];portConstraint=eastwest;strokeColor=#909090;fontColor=#1A1A1A;" parent="Nlh6Y8Wzobsq57K7iVmR-114" vertex="1">
                    <mxGeometry y="60" width="180" height="30" as="geometry"/>
                </mxCell>
                <mxCell id="Nlh6Y8Wzobsq57K7iVmR-119" value="" style="shape=partialRectangle;connectable=0;fillColor=none;top=0;left=0;bottom=0;right=0;editable=1;overflow=hidden;strokeColor=#909090;fontColor=#1A1A1A;" parent="Nlh6Y8Wzobsq57K7iVmR-118" vertex="1">
                    <mxGeometry width="30" height="30" as="geometry"/>
                </mxCell>
                <mxCell id="Nlh6Y8Wzobsq57K7iVmR-120" value="NumberOfSeats" style="shape=partialRectangle;connectable=0;fillColor=none;top=0;left=0;bottom=0;right=0;align=left;spacingLeft=6;overflow=hidden;strokeColor=#909090;fontColor=#1A1A1A;" parent="Nlh6Y8Wzobsq57K7iVmR-118" vertex="1">
                    <mxGeometry x="30" width="150" height="30" as="geometry"/>
                </mxCell>
                <mxCell id="Nlh6Y8Wzobsq57K7iVmR-121" value="" style="shape=partialRectangle;collapsible=0;dropTarget=0;pointerEvents=0;fillColor=none;top=0;left=0;bottom=0;right=0;points=[[0,0.5],[1,0.5]];portConstraint=eastwest;strokeColor=#909090;fontColor=#1A1A1A;" parent="Nlh6Y8Wzobsq57K7iVmR-114" vertex="1">
                    <mxGeometry y="90" width="180" height="30" as="geometry"/>
                </mxCell>
                <mxCell id="Nlh6Y8Wzobsq57K7iVmR-122" value="" style="shape=partialRectangle;connectable=0;fillColor=none;top=0;left=0;bottom=0;right=0;editable=1;overflow=hidden;strokeColor=#909090;fontColor=#1A1A1A;" parent="Nlh6Y8Wzobsq57K7iVmR-121" vertex="1">
                    <mxGeometry width="30" height="30" as="geometry"/>
                </mxCell>
                <mxCell id="Nlh6Y8Wzobsq57K7iVmR-123" value="RoomType" style="shape=partialRectangle;connectable=0;fillColor=none;top=0;left=0;bottom=0;right=0;align=left;spacingLeft=6;overflow=hidden;strokeColor=#909090;fontColor=#1A1A1A;" parent="Nlh6Y8Wzobsq57K7iVmR-121" vertex="1">
                    <mxGeometry x="30" width="150" height="30" as="geometry"/>
                </mxCell>
                <mxCell id="Nlh6Y8Wzobsq57K7iVmR-124" value="" style="shape=partialRectangle;collapsible=0;dropTarget=0;pointerEvents=0;fillColor=none;top=0;left=0;bottom=0;right=0;points=[[0,0.5],[1,0.5]];portConstraint=eastwest;strokeColor=#909090;fontColor=#1A1A1A;" parent="Nlh6Y8Wzobsq57K7iVmR-114" vertex="1">
                    <mxGeometry y="120" width="180" height="30" as="geometry"/>
                </mxCell>
                <mxCell id="Nlh6Y8Wzobsq57K7iVmR-125" value="" style="shape=partialRectangle;connectable=0;fillColor=none;top=0;left=0;bottom=0;right=0;editable=1;overflow=hidden;strokeColor=#909090;fontColor=#1A1A1A;" parent="Nlh6Y8Wzobsq57K7iVmR-124" vertex="1">
                    <mxGeometry width="30" height="30" as="geometry"/>
                </mxCell>
                <mxCell id="Nlh6Y8Wzobsq57K7iVmR-126" value="AvailabilityÂ " style="shape=partialRectangle;connectable=0;fillColor=none;top=0;left=0;bottom=0;right=0;align=left;spacingLeft=6;overflow=hidden;strokeColor=#909090;fontColor=#1A1A1A;" parent="Nlh6Y8Wzobsq57K7iVmR-124" vertex="1">
                    <mxGeometry x="30" width="150" height="30" as="geometry"/>
                </mxCell>
                <mxCell id="Nlh6Y8Wzobsq57K7iVmR-127" value="Patch&#10;&lt;&lt;weak&gt;&gt;" style="shape=table;startSize=30;container=1;collapsible=1;childLayout=tableLayout;fixedRows=1;rowLines=0;fontStyle=1;align=center;resizeLast=1;fillColor=#F5AB50;strokeColor=#909090;fontColor=#1A1A1A;" parent="kAJtJlJrq_F0AdrBs6Tl-1" vertex="1">
                    <mxGeometry x="940" y="50" width="180" height="130" as="geometry"/>
                </mxCell>
                <mxCell id="Nlh6Y8Wzobsq57K7iVmR-128" value="" style="shape=partialRectangle;collapsible=0;dropTarget=0;pointerEvents=0;fillColor=none;top=0;left=0;bottom=1;right=0;points=[[0,0.5],[1,0.5]];portConstraint=eastwest;strokeColor=#909090;fontColor=#1A1A1A;" parent="Nlh6Y8Wzobsq57K7iVmR-127" vertex="1">
                    <mxGeometry y="30" width="180" height="30" as="geometry"/>
                </mxCell>
                <mxCell id="Nlh6Y8Wzobsq57K7iVmR-129" value="D" style="shape=partialRectangle;connectable=0;fillColor=none;top=0;left=0;bottom=0;right=0;fontStyle=1;overflow=hidden;strokeColor=#909090;fontColor=#1A1A1A;" parent="Nlh6Y8Wzobsq57K7iVmR-128" vertex="1">
                    <mxGeometry width="30" height="30" as="geometry"/>
                </mxCell>
                <mxCell id="Nlh6Y8Wzobsq57K7iVmR-130" value="PatchID" style="shape=partialRectangle;connectable=0;fillColor=none;top=0;left=0;bottom=0;right=0;align=left;spacingLeft=6;fontStyle=5;overflow=hidden;strokeColor=#909090;fontColor=#1A1A1A;" parent="Nlh6Y8Wzobsq57K7iVmR-128" vertex="1">
                    <mxGeometry x="30" width="150" height="30" as="geometry"/>
                </mxCell>
                <mxCell id="Nlh6Y8Wzobsq57K7iVmR-131" value="" style="shape=partialRectangle;collapsible=0;dropTarget=0;pointerEvents=0;fillColor=none;top=0;left=0;bottom=0;right=0;points=[[0,0.5],[1,0.5]];portConstraint=eastwest;strokeColor=#909090;fontColor=#1A1A1A;" parent="Nlh6Y8Wzobsq57K7iVmR-127" vertex="1">
                    <mxGeometry y="60" width="180" height="30" as="geometry"/>
                </mxCell>
                <mxCell id="Nlh6Y8Wzobsq57K7iVmR-132" value="" style="shape=partialRectangle;connectable=0;fillColor=none;top=0;left=0;bottom=0;right=0;editable=1;overflow=hidden;strokeColor=#909090;fontColor=#1A1A1A;" parent="Nlh6Y8Wzobsq57K7iVmR-131" vertex="1">
                    <mxGeometry width="30" height="30" as="geometry"/>
                </mxCell>
                <mxCell id="Nlh6Y8Wzobsq57K7iVmR-133" value="Herbs" style="shape=partialRectangle;connectable=0;fillColor=none;top=0;left=0;bottom=0;right=0;align=left;spacingLeft=6;overflow=hidden;strokeColor=#909090;fontColor=#1A1A1A;" parent="Nlh6Y8Wzobsq57K7iVmR-131" vertex="1">
                    <mxGeometry x="30" width="150" height="30" as="geometry"/>
                </mxCell>
                <mxCell id="Nlh6Y8Wzobsq57K7iVmR-134" value="" style="shape=partialRectangle;collapsible=0;dropTarget=0;pointerEvents=0;fillColor=none;top=0;left=0;bottom=0;right=0;points=[[0,0.5],[1,0.5]];portConstraint=eastwest;strokeColor=#909090;fontColor=#1A1A1A;" parent="Nlh6Y8Wzobsq57K7iVmR-127" vertex="1">
                    <mxGeometry y="90" width="180" height="30" as="geometry"/>
                </mxCell>
                <mxCell id="Nlh6Y8Wzobsq57K7iVmR-135" value="" style="shape=partialRectangle;connectable=0;fillColor=none;top=0;left=0;bottom=0;right=0;editable=1;overflow=hidden;strokeColor=#909090;fontColor=#1A1A1A;" parent="Nlh6Y8Wzobsq57K7iVmR-134" vertex="1">
                    <mxGeometry width="30" height="30" as="geometry"/>
                </mxCell>
                <mxCell id="Nlh6Y8Wzobsq57K7iVmR-136" value="Vegetables" style="shape=partialRectangle;connectable=0;fillColor=none;top=0;left=0;bottom=0;right=0;align=left;spacingLeft=6;overflow=hidden;strokeColor=#909090;fontColor=#1A1A1A;" parent="Nlh6Y8Wzobsq57K7iVmR-134" vertex="1">
                    <mxGeometry x="30" width="150" height="30" as="geometry"/>
                </mxCell>
                <mxCell id="Nlh6Y8Wzobsq57K7iVmR-19" value="Reservation" style="shape=table;startSize=30;container=1;collapsible=1;childLayout=tableLayout;fixedRows=1;rowLines=0;fontStyle=1;align=center;resizeLast=1;fillColor=#F5AB50;strokeColor=#909090;fontColor=#1A1A1A;" parent="kAJtJlJrq_F0AdrBs6Tl-1" vertex="1">
                    <mxGeometry x="380" y="50" width="180" height="130" as="geometry"/>
                </mxCell>
                <mxCell id="Nlh6Y8Wzobsq57K7iVmR-20" value="" style="shape=partialRectangle;collapsible=0;dropTarget=0;pointerEvents=0;fillColor=none;top=0;left=0;bottom=1;right=0;points=[[0,0.5],[1,0.5]];portConstraint=eastwest;strokeColor=#909090;fontColor=#1A1A1A;" parent="Nlh6Y8Wzobsq57K7iVmR-19" vertex="1">
                    <mxGeometry y="30" width="180" height="30" as="geometry"/>
                </mxCell>
                <mxCell id="Nlh6Y8Wzobsq57K7iVmR-21" value="PK" style="shape=partialRectangle;connectable=0;fillColor=none;top=0;left=0;bottom=0;right=0;fontStyle=1;overflow=hidden;strokeColor=#909090;fontColor=#1A1A1A;" parent="Nlh6Y8Wzobsq57K7iVmR-20" vertex="1">
                    <mxGeometry width="30" height="30" as="geometry">
                        <mxRectangle width="30" height="30" as="alternateBounds"/>
                    </mxGeometry>
                </mxCell>
                <mxCell id="Nlh6Y8Wzobsq57K7iVmR-22" value="ReservationID" style="shape=partialRectangle;connectable=0;top=0;left=0;bottom=0;right=0;align=left;spacingLeft=6;fontStyle=5;overflow=hidden;strokeColor=#909090;fontColor=#1A1A1A;fillColor=none;" parent="Nlh6Y8Wzobsq57K7iVmR-20" vertex="1">
                    <mxGeometry x="30" width="150" height="30" as="geometry">
                        <mxRectangle width="150" height="30" as="alternateBounds"/>
                    </mxGeometry>
                </mxCell>
                <mxCell id="Nlh6Y8Wzobsq57K7iVmR-26" value="" style="shape=partialRectangle;collapsible=0;dropTarget=0;pointerEvents=0;fillColor=none;top=0;left=0;bottom=0;right=0;points=[[0,0.5],[1,0.5]];portConstraint=eastwest;strokeColor=#909090;fontColor=#1A1A1A;" parent="Nlh6Y8Wzobsq57K7iVmR-19" vertex="1">
                    <mxGeometry y="60" width="180" height="30" as="geometry"/>
                </mxCell>
                <mxCell id="Nlh6Y8Wzobsq57K7iVmR-27" value="" style="shape=partialRectangle;connectable=0;fillColor=none;top=0;left=0;bottom=0;right=0;editable=1;overflow=hidden;strokeColor=#909090;fontColor=#1A1A1A;" parent="Nlh6Y8Wzobsq57K7iVmR-26" vertex="1">
                    <mxGeometry width="30" height="30" as="geometry">
                        <mxRectangle width="30" height="30" as="alternateBounds"/>
                    </mxGeometry>
                </mxCell>
                <mxCell id="Nlh6Y8Wzobsq57K7iVmR-28" value="NumberOfRooms" style="shape=partialRectangle;connectable=0;fillColor=none;top=0;left=0;bottom=0;right=0;align=left;spacingLeft=6;overflow=hidden;strokeColor=#909090;fontColor=#1A1A1A;" parent="Nlh6Y8Wzobsq57K7iVmR-26" vertex="1">
                    <mxGeometry x="30" width="150" height="30" as="geometry">
                        <mxRectangle width="150" height="30" as="alternateBounds"/>
                    </mxGeometry>
                </mxCell>
                <mxCell id="Nlh6Y8Wzobsq57K7iVmR-29" value="" style="shape=partialRectangle;collapsible=0;dropTarget=0;pointerEvents=0;fillColor=none;top=0;left=0;bottom=0;right=0;points=[[0,0.5],[1,0.5]];portConstraint=eastwest;strokeColor=#909090;fontColor=#1A1A1A;" parent="Nlh6Y8Wzobsq57K7iVmR-19" vertex="1">
                    <mxGeometry y="90" width="180" height="30" as="geometry"/>
                </mxCell>
                <mxCell id="Nlh6Y8Wzobsq57K7iVmR-30" value="" style="shape=partialRectangle;connectable=0;fillColor=none;top=0;left=0;bottom=0;right=0;editable=1;overflow=hidden;strokeColor=#909090;fontColor=#1A1A1A;" parent="Nlh6Y8Wzobsq57K7iVmR-29" vertex="1">
                    <mxGeometry width="30" height="30" as="geometry">
                        <mxRectangle width="30" height="30" as="alternateBounds"/>
                    </mxGeometry>
                </mxCell>
                <mxCell id="Nlh6Y8Wzobsq57K7iVmR-31" value="TimeOfArrival" style="shape=partialRectangle;connectable=0;fillColor=none;top=0;left=0;bottom=0;right=0;align=left;spacingLeft=6;overflow=hidden;strokeColor=#909090;fontColor=#1A1A1A;" parent="Nlh6Y8Wzobsq57K7iVmR-29" vertex="1">
                    <mxGeometry x="30" width="150" height="30" as="geometry">
                        <mxRectangle width="150" height="30" as="alternateBounds"/>
                    </mxGeometry>
                </mxCell>
                <mxCell id="Nlh6Y8Wzobsq57K7iVmR-32" value="Order" style="shape=table;startSize=30;container=1;collapsible=1;childLayout=tableLayout;fixedRows=1;rowLines=0;fontStyle=1;align=center;resizeLast=1;fillColor=#F5AB50;strokeColor=#909090;fontColor=#1A1A1A;" parent="kAJtJlJrq_F0AdrBs6Tl-1" vertex="1">
                    <mxGeometry x="380" y="330" width="180" height="130" as="geometry"/>
                </mxCell>
                <mxCell id="Nlh6Y8Wzobsq57K7iVmR-33" value="" style="shape=partialRectangle;collapsible=0;dropTarget=0;pointerEvents=0;fillColor=none;top=0;left=0;bottom=1;right=0;points=[[0,0.5],[1,0.5]];portConstraint=eastwest;strokeColor=#909090;fontColor=#1A1A1A;" parent="Nlh6Y8Wzobsq57K7iVmR-32" vertex="1">
                    <mxGeometry y="30" width="180" height="30" as="geometry"/>
                </mxCell>
                <mxCell id="Nlh6Y8Wzobsq57K7iVmR-34" value="PK" style="shape=partialRectangle;connectable=0;fillColor=none;top=0;left=0;bottom=0;right=0;fontStyle=1;overflow=hidden;strokeColor=#909090;fontColor=#1A1A1A;" parent="Nlh6Y8Wzobsq57K7iVmR-33" vertex="1">
                    <mxGeometry width="30" height="30" as="geometry">
                        <mxRectangle width="30" height="30" as="alternateBounds"/>
                    </mxGeometry>
                </mxCell>
                <mxCell id="Nlh6Y8Wzobsq57K7iVmR-35" value="OrderID" style="shape=partialRectangle;connectable=0;fillColor=none;top=0;left=0;bottom=0;right=0;align=left;spacingLeft=6;fontStyle=5;overflow=hidden;strokeColor=#909090;fontColor=#1A1A1A;" parent="Nlh6Y8Wzobsq57K7iVmR-33" vertex="1">
                    <mxGeometry x="30" width="150" height="30" as="geometry">
                        <mxRectangle width="150" height="30" as="alternateBounds"/>
                    </mxGeometry>
                </mxCell>
                <mxCell id="Nlh6Y8Wzobsq57K7iVmR-42" value="" style="shape=partialRectangle;collapsible=0;dropTarget=0;pointerEvents=0;fillColor=none;top=0;left=0;bottom=0;right=0;points=[[0,0.5],[1,0.5]];portConstraint=eastwest;strokeColor=#909090;fontColor=#1A1A1A;" parent="Nlh6Y8Wzobsq57K7iVmR-32" vertex="1">
                    <mxGeometry y="60" width="180" height="30" as="geometry"/>
                </mxCell>
                <mxCell id="Nlh6Y8Wzobsq57K7iVmR-43" value="" style="shape=partialRectangle;connectable=0;fillColor=none;top=0;left=0;bottom=0;right=0;editable=1;overflow=hidden;strokeColor=#909090;fontColor=#1A1A1A;" parent="Nlh6Y8Wzobsq57K7iVmR-42" vertex="1">
                    <mxGeometry width="30" height="30" as="geometry">
                        <mxRectangle width="30" height="30" as="alternateBounds"/>
                    </mxGeometry>
                </mxCell>
                <mxCell id="Nlh6Y8Wzobsq57K7iVmR-44" value="OrderStatus" style="shape=partialRectangle;connectable=0;fillColor=none;top=0;left=0;bottom=0;right=0;align=left;spacingLeft=6;overflow=hidden;strokeColor=#909090;fontColor=#1A1A1A;" parent="Nlh6Y8Wzobsq57K7iVmR-42" vertex="1">
                    <mxGeometry x="30" width="150" height="30" as="geometry">
                        <mxRectangle width="150" height="30" as="alternateBounds"/>
                    </mxGeometry>
                </mxCell>
                <mxCell id="Nlh6Y8Wzobsq57K7iVmR-39" value="" style="shape=partialRectangle;collapsible=0;dropTarget=0;pointerEvents=0;fillColor=none;top=0;left=0;bottom=0;right=0;points=[[0,0.5],[1,0.5]];portConstraint=eastwest;strokeColor=#909090;fontColor=#1A1A1A;" parent="Nlh6Y8Wzobsq57K7iVmR-32" vertex="1">
                    <mxGeometry y="90" width="180" height="30" as="geometry"/>
                </mxCell>
                <mxCell id="Nlh6Y8Wzobsq57K7iVmR-40" value="" style="shape=partialRectangle;connectable=0;fillColor=none;top=0;left=0;bottom=0;right=0;editable=1;overflow=hidden;strokeColor=#909090;fontColor=#1A1A1A;" parent="Nlh6Y8Wzobsq57K7iVmR-39" vertex="1">
                    <mxGeometry width="30" height="30" as="geometry">
                        <mxRectangle width="30" height="30" as="alternateBounds"/>
                    </mxGeometry>
                </mxCell>
                <mxCell id="Nlh6Y8Wzobsq57K7iVmR-41" value="DateAndTime" style="shape=partialRectangle;connectable=0;fillColor=none;top=0;left=0;bottom=0;right=0;align=left;spacingLeft=6;overflow=hidden;strokeColor=#909090;fontColor=#1A1A1A;" parent="Nlh6Y8Wzobsq57K7iVmR-39" vertex="1">
                    <mxGeometry x="30" width="150" height="30" as="geometry">
                        <mxRectangle width="150" height="30" as="alternateBounds"/>
                    </mxGeometry>
                </mxCell>
                <mxCell id="Nlh6Y8Wzobsq57K7iVmR-45" value="Payment" style="shape=table;startSize=30;container=1;collapsible=1;childLayout=tableLayout;fixedRows=1;rowLines=0;fontStyle=1;align=center;resizeLast=1;fillColor=#F5AB50;strokeColor=#909090;fontColor=#1A1A1A;" parent="kAJtJlJrq_F0AdrBs6Tl-1" vertex="1">
                    <mxGeometry x="380" y="570" width="180" height="160" as="geometry"/>
                </mxCell>
                <mxCell id="Nlh6Y8Wzobsq57K7iVmR-46" value="" style="shape=partialRectangle;collapsible=0;dropTarget=0;pointerEvents=0;fillColor=none;top=0;left=0;bottom=1;right=0;points=[[0,0.5],[1,0.5]];portConstraint=eastwest;strokeColor=#909090;fontColor=#1A1A1A;" parent="Nlh6Y8Wzobsq57K7iVmR-45" vertex="1">
                    <mxGeometry y="30" width="180" height="30" as="geometry"/>
                </mxCell>
                <mxCell id="Nlh6Y8Wzobsq57K7iVmR-47" value="PK" style="shape=partialRectangle;connectable=0;fillColor=none;top=0;left=0;bottom=0;right=0;fontStyle=1;overflow=hidden;strokeColor=#909090;fontColor=#1A1A1A;" parent="Nlh6Y8Wzobsq57K7iVmR-46" vertex="1">
                    <mxGeometry width="30" height="30" as="geometry">
                        <mxRectangle width="30" height="30" as="alternateBounds"/>
                    </mxGeometry>
                </mxCell>
                <mxCell id="Nlh6Y8Wzobsq57K7iVmR-48" value="PaymentID" style="shape=partialRectangle;connectable=0;fillColor=none;top=0;left=0;bottom=0;right=0;align=left;spacingLeft=6;fontStyle=5;overflow=hidden;strokeColor=#909090;fontColor=#1A1A1A;" parent="Nlh6Y8Wzobsq57K7iVmR-46" vertex="1">
                    <mxGeometry x="30" width="150" height="30" as="geometry">
                        <mxRectangle width="150" height="30" as="alternateBounds"/>
                    </mxGeometry>
                </mxCell>
                <mxCell id="0J9ipkvfnj8oxrN4Rvkm-19" style="shape=partialRectangle;collapsible=0;dropTarget=0;pointerEvents=0;fillColor=none;top=0;left=0;bottom=0;right=0;points=[[0,0.5],[1,0.5]];portConstraint=eastwest;strokeColor=#909090;fontColor=#1A1A1A;" parent="Nlh6Y8Wzobsq57K7iVmR-45" vertex="1">
                    <mxGeometry y="60" width="180" height="30" as="geometry"/>
                </mxCell>
                <mxCell id="0J9ipkvfnj8oxrN4Rvkm-20" style="shape=partialRectangle;connectable=0;fillColor=none;top=0;left=0;bottom=0;right=0;editable=1;overflow=hidden;strokeColor=#909090;fontColor=#1A1A1A;" parent="0J9ipkvfnj8oxrN4Rvkm-19" vertex="1">
                    <mxGeometry width="30" height="30" as="geometry">
                        <mxRectangle width="30" height="30" as="alternateBounds"/>
                    </mxGeometry>
                </mxCell>
                <mxCell id="0J9ipkvfnj8oxrN4Rvkm-21" value="DateAndTime" style="shape=partialRectangle;connectable=0;fillColor=none;top=0;left=0;bottom=0;right=0;align=left;spacingLeft=6;overflow=hidden;strokeColor=#909090;fontColor=#1A1A1A;" parent="0J9ipkvfnj8oxrN4Rvkm-19" vertex="1">
                    <mxGeometry x="30" width="150" height="30" as="geometry">
                        <mxRectangle width="150" height="30" as="alternateBounds"/>
                    </mxGeometry>
                </mxCell>
                <mxCell id="7Yp1tGYhWf-ZGioRAb78-0" style="shape=partialRectangle;collapsible=0;dropTarget=0;pointerEvents=0;fillColor=none;top=0;left=0;bottom=0;right=0;points=[[0,0.5],[1,0.5]];portConstraint=eastwest;strokeColor=#909090;fontColor=#1A1A1A;" parent="Nlh6Y8Wzobsq57K7iVmR-45" vertex="1">
                    <mxGeometry y="90" width="180" height="30" as="geometry"/>
                </mxCell>
                <mxCell id="7Yp1tGYhWf-ZGioRAb78-1" style="shape=partialRectangle;connectable=0;fillColor=none;top=0;left=0;bottom=0;right=0;editable=1;overflow=hidden;strokeColor=#909090;fontColor=#1A1A1A;" parent="7Yp1tGYhWf-ZGioRAb78-0" vertex="1">
                    <mxGeometry width="30" height="30" as="geometry">
                        <mxRectangle width="30" height="30" as="alternateBounds"/>
                    </mxGeometry>
                </mxCell>
                <mxCell id="7Yp1tGYhWf-ZGioRAb78-2" value="Price" style="shape=partialRectangle;connectable=0;fillColor=none;top=0;left=0;bottom=0;right=0;align=left;spacingLeft=6;overflow=hidden;strokeColor=#909090;fontColor=#1A1A1A;" parent="7Yp1tGYhWf-ZGioRAb78-0" vertex="1">
                    <mxGeometry x="30" width="150" height="30" as="geometry">
                        <mxRectangle width="150" height="30" as="alternateBounds"/>
                    </mxGeometry>
                </mxCell>
                <mxCell id="Nlh6Y8Wzobsq57K7iVmR-55" value="" style="shape=partialRectangle;collapsible=0;dropTarget=0;pointerEvents=0;fillColor=none;top=0;left=0;bottom=0;right=0;points=[[0,0.5],[1,0.5]];portConstraint=eastwest;strokeColor=#909090;fontColor=#1A1A1A;" parent="Nlh6Y8Wzobsq57K7iVmR-45" vertex="1">
                    <mxGeometry y="120" width="180" height="30" as="geometry"/>
                </mxCell>
                <mxCell id="Nlh6Y8Wzobsq57K7iVmR-56" value="" style="shape=partialRectangle;connectable=0;fillColor=none;top=0;left=0;bottom=0;right=0;editable=1;overflow=hidden;strokeColor=#909090;fontColor=#1A1A1A;" parent="Nlh6Y8Wzobsq57K7iVmR-55" vertex="1">
                    <mxGeometry width="30" height="30" as="geometry">
                        <mxRectangle width="30" height="30" as="alternateBounds"/>
                    </mxGeometry>
                </mxCell>
                <mxCell id="Nlh6Y8Wzobsq57K7iVmR-57" value="PaymentTypeÂ " style="shape=partialRectangle;connectable=0;fillColor=none;top=0;left=0;bottom=0;right=0;align=left;spacingLeft=6;overflow=hidden;strokeColor=#909090;fontColor=#1A1A1A;" parent="Nlh6Y8Wzobsq57K7iVmR-55" vertex="1">
                    <mxGeometry x="30" width="150" height="30" as="geometry">
                        <mxRectangle width="150" height="30" as="alternateBounds"/>
                    </mxGeometry>
                </mxCell>
                <mxCell id="Nlh6Y8Wzobsq57K7iVmR-140" value="" style="endArrow=none;html=1;rounded=0;labelBackgroundColor=#EEEEEE;strokeColor=#182E3E;fontColor=#1A1A1A;edgeStyle=orthogonalEdgeStyle;exitX=0.775;exitY=0.971;exitDx=0;exitDy=0;exitPerimeter=0;" parent="kAJtJlJrq_F0AdrBs6Tl-1" source="7uCQopmuCqB1mjJSyksK-40" edge="1">
                    <mxGeometry relative="1" as="geometry">
                        <mxPoint x="31" y="380" as="sourcePoint"/>
                        <mxPoint x="380" y="400" as="targetPoint"/>
                        <Array as="points">
                            <mxPoint x="31" y="400"/>
                        </Array>
                    </mxGeometry>
                </mxCell>
                <mxCell id="Nlh6Y8Wzobsq57K7iVmR-141" value="1" style="resizable=0;html=1;align=left;verticalAlign=bottom;fillColor=#F5AB50;strokeColor=#909090;fontColor=#1A1A1A;" parent="Nlh6Y8Wzobsq57K7iVmR-140" connectable="0" vertex="1">
                    <mxGeometry x="-1" relative="1" as="geometry">
                        <mxPoint y="18" as="offset"/>
                    </mxGeometry>
                </mxCell>
                <mxCell id="Nlh6Y8Wzobsq57K7iVmR-142" value="0..*" style="resizable=0;html=1;align=right;verticalAlign=bottom;fillColor=#F5AB50;strokeColor=#909090;fontColor=#1A1A1A;" parent="Nlh6Y8Wzobsq57K7iVmR-140" connectable="0" vertex="1">
                    <mxGeometry x="1" relative="1" as="geometry">
                        <mxPoint x="-2" y="1" as="offset"/>
                    </mxGeometry>
                </mxCell>
                <mxCell id="Nlh6Y8Wzobsq57K7iVmR-167" value="Creates" style="edgeLabel;html=1;align=center;verticalAlign=middle;resizable=0;points=[];labelBackgroundColor=none;fontColor=#1A1A1A;" parent="Nlh6Y8Wzobsq57K7iVmR-140" vertex="1" connectable="0">
                    <mxGeometry x="0.1833" y="-1" relative="1" as="geometry">
                        <mxPoint x="25" y="9" as="offset"/>
                    </mxGeometry>
                </mxCell>
                <mxCell id="Nlh6Y8Wzobsq57K7iVmR-143" value="" style="endArrow=none;html=1;rounded=0;entryX=0;entryY=0.5;entryDx=0;entryDy=0;edgeStyle=orthogonalEdgeStyle;labelBackgroundColor=#EEEEEE;strokeColor=#182E3E;fontColor=#1A1A1A;exitX=0.5;exitY=1;exitDx=0;exitDy=0;" parent="kAJtJlJrq_F0AdrBs6Tl-1" source="7uCQopmuCqB1mjJSyksK-27" edge="1">
                    <mxGeometry relative="1" as="geometry">
                        <mxPoint x="30" y="435" as="sourcePoint"/>
                        <mxPoint x="380" y="645" as="targetPoint"/>
                        <Array as="points">
                            <mxPoint x="-5" y="435"/>
                            <mxPoint x="320" y="435"/>
                            <mxPoint x="320" y="645"/>
                        </Array>
                    </mxGeometry>
                </mxCell>
                <mxCell id="Nlh6Y8Wzobsq57K7iVmR-144" value="1" style="resizable=0;html=1;align=left;verticalAlign=bottom;fillColor=#F5AB50;strokeColor=#909090;fontColor=#1A1A1A;" parent="Nlh6Y8Wzobsq57K7iVmR-143" connectable="0" vertex="1">
                    <mxGeometry x="-1" relative="1" as="geometry">
                        <mxPoint x="1" y="17" as="offset"/>
                    </mxGeometry>
                </mxCell>
                <mxCell id="Nlh6Y8Wzobsq57K7iVmR-145" value="0..*" style="resizable=0;html=1;align=right;verticalAlign=bottom;fillColor=#F5AB50;strokeColor=#909090;fontColor=#1A1A1A;" parent="Nlh6Y8Wzobsq57K7iVmR-143" connectable="0" vertex="1">
                    <mxGeometry x="1" relative="1" as="geometry">
                        <mxPoint x="-2" as="offset"/>
                    </mxGeometry>
                </mxCell>
                <mxCell id="Nlh6Y8Wzobsq57K7iVmR-165" value="Creates" style="edgeLabel;html=1;align=center;verticalAlign=middle;resizable=0;points=[];labelBackgroundColor=none;fontColor=#1A1A1A;" parent="Nlh6Y8Wzobsq57K7iVmR-143" vertex="1" connectable="0">
                    <mxGeometry x="-0.099" y="-1" relative="1" as="geometry">
                        <mxPoint x="25" y="11" as="offset"/>
                    </mxGeometry>
                </mxCell>
                <mxCell id="Nlh6Y8Wzobsq57K7iVmR-146" value="" style="endArrow=none;html=1;rounded=0;edgeStyle=orthogonalEdgeStyle;labelBackgroundColor=#EEEEEE;strokeColor=#182E3E;fontColor=#1A1A1A;exitX=0.999;exitY=0.16;exitDx=0;exitDy=0;exitPerimeter=0;" parent="kAJtJlJrq_F0AdrBs6Tl-1" source="9" edge="1">
                    <mxGeometry relative="1" as="geometry">
                        <mxPoint x="270" y="380" as="sourcePoint"/>
                        <mxPoint x="380" y="155" as="targetPoint"/>
                        <Array as="points"/>
                    </mxGeometry>
                </mxCell>
                <mxCell id="Nlh6Y8Wzobsq57K7iVmR-148" value="0..*" style="resizable=0;html=1;align=right;verticalAlign=bottom;fillColor=#F5AB50;strokeColor=#909090;fontColor=#1A1A1A;" parent="Nlh6Y8Wzobsq57K7iVmR-146" connectable="0" vertex="1">
                    <mxGeometry x="1" relative="1" as="geometry">
                        <mxPoint x="-2" as="offset"/>
                    </mxGeometry>
                </mxCell>
                <mxCell id="Nlh6Y8Wzobsq57K7iVmR-166" value="Creates" style="edgeLabel;html=1;align=center;verticalAlign=middle;resizable=0;points=[];labelBackgroundColor=none;fontColor=#1A1A1A;" parent="Nlh6Y8Wzobsq57K7iVmR-146" vertex="1" connectable="0">
                    <mxGeometry x="-0.1157" relative="1" as="geometry">
                        <mxPoint x="8" y="-11" as="offset"/>
                    </mxGeometry>
                </mxCell>
                <mxCell id="Nlh6Y8Wzobsq57K7iVmR-149" value="" style="endArrow=none;html=1;rounded=0;entryX=0;entryY=0.5;entryDx=0;entryDy=0;labelBackgroundColor=#EEEEEE;strokeColor=#182E3E;fontColor=#1A1A1A;" parent="kAJtJlJrq_F0AdrBs6Tl-1" target="Nlh6Y8Wzobsq57K7iVmR-121" edge="1">
                    <mxGeometry relative="1" as="geometry">
                        <mxPoint x="560" y="155" as="sourcePoint"/>
                        <mxPoint x="580" y="320" as="targetPoint"/>
                    </mxGeometry>
                </mxCell>
                <mxCell id="Nlh6Y8Wzobsq57K7iVmR-150" value="0..*" style="resizable=0;html=1;align=left;verticalAlign=bottom;fillColor=#F5AB50;strokeColor=#909090;fontColor=#1A1A1A;" parent="Nlh6Y8Wzobsq57K7iVmR-149" connectable="0" vertex="1">
                    <mxGeometry x="-1" relative="1" as="geometry"/>
                </mxCell>
                <mxCell id="Nlh6Y8Wzobsq57K7iVmR-151" value="1..*" style="resizable=0;html=1;align=right;verticalAlign=bottom;fillColor=#F5AB50;strokeColor=#909090;fontColor=#1A1A1A;" parent="Nlh6Y8Wzobsq57K7iVmR-149" connectable="0" vertex="1">
                    <mxGeometry x="1" relative="1" as="geometry">
                        <mxPoint x="-2" as="offset"/>
                    </mxGeometry>
                </mxCell>
                <mxCell id="Nlh6Y8Wzobsq57K7iVmR-172" value="For" style="edgeLabel;html=1;align=center;verticalAlign=middle;resizable=0;points=[];labelBackgroundColor=none;fontColor=#1A1A1A;" parent="Nlh6Y8Wzobsq57K7iVmR-149" vertex="1" connectable="0">
                    <mxGeometry x="0.364" relative="1" as="geometry">
                        <mxPoint x="-18" y="-8" as="offset"/>
                    </mxGeometry>
                </mxCell>
                <mxCell id="Nlh6Y8Wzobsq57K7iVmR-152" value="" style="endArrow=none;html=1;rounded=0;exitX=1;exitY=0.5;exitDx=0;exitDy=0;entryX=0;entryY=0.5;entryDx=0;entryDy=0;labelBackgroundColor=#EEEEEE;strokeColor=#182E3E;fontColor=#1A1A1A;" parent="kAJtJlJrq_F0AdrBs6Tl-1" source="Nlh6Y8Wzobsq57K7iVmR-121" target="Nlh6Y8Wzobsq57K7iVmR-134" edge="1">
                    <mxGeometry relative="1" as="geometry">
                        <mxPoint x="420" y="320" as="sourcePoint"/>
                        <mxPoint x="580" y="320" as="targetPoint"/>
                    </mxGeometry>
                </mxCell>
                <mxCell id="Nlh6Y8Wzobsq57K7iVmR-153" value="1" style="resizable=0;html=1;align=left;verticalAlign=bottom;fillColor=#F5AB50;strokeColor=#909090;fontColor=#1A1A1A;" parent="Nlh6Y8Wzobsq57K7iVmR-152" connectable="0" vertex="1">
                    <mxGeometry x="-1" relative="1" as="geometry"/>
                </mxCell>
                <mxCell id="Nlh6Y8Wzobsq57K7iVmR-154" value="1..*" style="resizable=0;html=1;align=right;verticalAlign=bottom;fillColor=#F5AB50;strokeColor=#909090;fontColor=#1A1A1A;" parent="Nlh6Y8Wzobsq57K7iVmR-152" connectable="0" vertex="1">
                    <mxGeometry x="1" relative="1" as="geometry">
                        <mxPoint x="-2" as="offset"/>
                    </mxGeometry>
                </mxCell>
                <mxCell id="Nlh6Y8Wzobsq57K7iVmR-173" value="&amp;lt;&amp;lt;identif&amp;gt;&amp;gt;" style="edgeLabel;html=1;align=center;verticalAlign=middle;resizable=0;points=[];labelBackgroundColor=none;fontColor=#1A1A1A;" parent="Nlh6Y8Wzobsq57K7iVmR-152" vertex="1" connectable="0">
                    <mxGeometry x="0.3078" relative="1" as="geometry">
                        <mxPoint x="-15" y="-8" as="offset"/>
                    </mxGeometry>
                </mxCell>
                <mxCell id="Nlh6Y8Wzobsq57K7iVmR-155" value="" style="endArrow=none;html=1;rounded=0;labelBackgroundColor=#EEEEEE;strokeColor=#182E3E;fontColor=#1A1A1A;" parent="kAJtJlJrq_F0AdrBs6Tl-1" target="7uCQopmuCqB1mjJSyksK-57" edge="1">
                    <mxGeometry relative="1" as="geometry">
                        <mxPoint x="560" y="405" as="sourcePoint"/>
                        <mxPoint x="790" y="400.0799999999999" as="targetPoint"/>
                        <Array as="points"/>
                    </mxGeometry>
                </mxCell>
                <mxCell id="Nlh6Y8Wzobsq57K7iVmR-156" value="0..*" style="resizable=0;html=1;align=left;verticalAlign=bottom;fillColor=#F5AB50;strokeColor=#909090;fontColor=#1A1A1A;" parent="Nlh6Y8Wzobsq57K7iVmR-155" connectable="0" vertex="1">
                    <mxGeometry x="-1" relative="1" as="geometry"/>
                </mxCell>
                <mxCell id="Nlh6Y8Wzobsq57K7iVmR-157" value="1..*" style="resizable=0;html=1;align=right;verticalAlign=bottom;fillColor=#F5AB50;strokeColor=#909090;fontColor=#1A1A1A;" parent="Nlh6Y8Wzobsq57K7iVmR-155" connectable="0" vertex="1">
                    <mxGeometry x="1" relative="1" as="geometry">
                        <mxPoint x="-3" as="offset"/>
                    </mxGeometry>
                </mxCell>
                <mxCell id="Nlh6Y8Wzobsq57K7iVmR-168" value="Contains&amp;nbsp;" style="edgeLabel;html=1;align=center;verticalAlign=middle;resizable=0;points=[];labelBackgroundColor=none;fontColor=#1A1A1A;" parent="Nlh6Y8Wzobsq57K7iVmR-155" vertex="1" connectable="0">
                    <mxGeometry x="-0.3172" relative="1" as="geometry">
                        <mxPoint x="41" y="9" as="offset"/>
                    </mxGeometry>
                </mxCell>
                <mxCell id="Nlh6Y8Wzobsq57K7iVmR-158" value="" style="endArrow=none;html=1;rounded=0;edgeStyle=orthogonalEdgeStyle;labelBackgroundColor=#EEEEEE;strokeColor=#182E3E;fontColor=#1A1A1A;entryX=0;entryY=0.678;entryDx=0;entryDy=0;entryPerimeter=0;exitX=0.998;exitY=0.669;exitDx=0;exitDy=0;exitPerimeter=0;" parent="kAJtJlJrq_F0AdrBs6Tl-1" source="7uCQopmuCqB1mjJSyksK-54" target="Nlh6Y8Wzobsq57K7iVmR-102" edge="1">
                    <mxGeometry relative="1" as="geometry">
                        <mxPoint x="1020" y="390" as="sourcePoint"/>
                        <mxPoint x="1118" y="390" as="targetPoint"/>
                        <Array as="points"/>
                    </mxGeometry>
                </mxCell>
                <mxCell id="Nlh6Y8Wzobsq57K7iVmR-159" value="0..*" style="resizable=0;html=1;align=left;verticalAlign=bottom;fillColor=#F5AB50;strokeColor=#909090;fontColor=#1A1A1A;" parent="Nlh6Y8Wzobsq57K7iVmR-158" connectable="0" vertex="1">
                    <mxGeometry x="-1" relative="1" as="geometry">
                        <mxPoint x="2" as="offset"/>
                    </mxGeometry>
                </mxCell>
                <mxCell id="Nlh6Y8Wzobsq57K7iVmR-160" value="1..*" style="resizable=0;html=1;align=right;verticalAlign=bottom;fillColor=#F5AB50;strokeColor=#909090;fontColor=#1A1A1A;" parent="Nlh6Y8Wzobsq57K7iVmR-158" connectable="0" vertex="1">
                    <mxGeometry x="1" relative="1" as="geometry">
                        <mxPoint x="-3" y="-2" as="offset"/>
                    </mxGeometry>
                </mxCell>
                <mxCell id="Nlh6Y8Wzobsq57K7iVmR-170" value="Contains" style="edgeLabel;html=1;align=center;verticalAlign=middle;resizable=0;points=[];labelBackgroundColor=none;fontColor=#1A1A1A;" parent="Nlh6Y8Wzobsq57K7iVmR-158" vertex="1" connectable="0">
                    <mxGeometry x="-0.2345" relative="1" as="geometry">
                        <mxPoint x="8" y="-12" as="offset"/>
                    </mxGeometry>
                </mxCell>
                <mxCell id="Nlh6Y8Wzobsq57K7iVmR-0" value="User" style="shape=table;startSize=30;container=1;collapsible=1;childLayout=tableLayout;fixedRows=1;rowLines=0;fontStyle=1;align=center;resizeLast=1;fillColor=#F5AB50;strokeColor=#909090;fontColor=#1A1A1A;" parent="kAJtJlJrq_F0AdrBs6Tl-1" vertex="1">
                    <mxGeometry x="10" width="180" height="183" as="geometry"/>
                </mxCell>
                <mxCell id="Nlh6Y8Wzobsq57K7iVmR-1" value="" style="shape=partialRectangle;collapsible=0;dropTarget=0;pointerEvents=0;fillColor=none;top=0;left=0;bottom=1;right=0;points=[[0,0.5],[1,0.5]];portConstraint=eastwest;strokeColor=#909090;fontColor=#1A1A1A;" parent="Nlh6Y8Wzobsq57K7iVmR-0" vertex="1">
                    <mxGeometry y="30" width="180" height="30" as="geometry"/>
                </mxCell>
                <mxCell id="Nlh6Y8Wzobsq57K7iVmR-2" value="PK" style="shape=partialRectangle;connectable=0;fillColor=none;top=0;left=0;bottom=0;right=0;fontStyle=1;overflow=hidden;strokeColor=#909090;fontColor=#1A1A1A;" parent="Nlh6Y8Wzobsq57K7iVmR-1" vertex="1">
                    <mxGeometry width="30" height="30" as="geometry">
                        <mxRectangle width="30" height="30" as="alternateBounds"/>
                    </mxGeometry>
                </mxCell>
                <mxCell id="Nlh6Y8Wzobsq57K7iVmR-3" value="ID" style="shape=partialRectangle;connectable=0;fillColor=none;top=0;left=0;bottom=0;right=0;align=left;spacingLeft=6;fontStyle=5;overflow=hidden;strokeColor=#909090;fontColor=#1A1A1A;" parent="Nlh6Y8Wzobsq57K7iVmR-1" vertex="1">
                    <mxGeometry x="30" width="150" height="30" as="geometry">
                        <mxRectangle width="150" height="30" as="alternateBounds"/>
                    </mxGeometry>
                </mxCell>
                <mxCell id="Nlh6Y8Wzobsq57K7iVmR-4" value="" style="shape=partialRectangle;collapsible=0;dropTarget=0;pointerEvents=0;fillColor=none;top=0;left=0;bottom=0;right=0;points=[[0,0.5],[1,0.5]];portConstraint=eastwest;strokeColor=#909090;fontColor=#1A1A1A;" parent="Nlh6Y8Wzobsq57K7iVmR-0" vertex="1">
                    <mxGeometry y="60" width="180" height="30" as="geometry"/>
                </mxCell>
                <mxCell id="Nlh6Y8Wzobsq57K7iVmR-5" value="" style="shape=partialRectangle;connectable=0;fillColor=none;top=0;left=0;bottom=0;right=0;editable=1;overflow=hidden;strokeColor=#909090;fontColor=#1A1A1A;" parent="Nlh6Y8Wzobsq57K7iVmR-4" vertex="1">
                    <mxGeometry width="30" height="30" as="geometry">
                        <mxRectangle width="30" height="30" as="alternateBounds"/>
                    </mxGeometry>
                </mxCell>
                <mxCell id="Nlh6Y8Wzobsq57K7iVmR-6" value="Email" style="shape=partialRectangle;connectable=0;fillColor=none;top=0;left=0;bottom=0;right=0;align=left;spacingLeft=6;overflow=hidden;strokeColor=#909090;fontColor=#1A1A1A;" parent="Nlh6Y8Wzobsq57K7iVmR-4" vertex="1">
                    <mxGeometry x="30" width="150" height="30" as="geometry">
                        <mxRectangle width="150" height="30" as="alternateBounds"/>
                    </mxGeometry>
                </mxCell>
                <mxCell id="Nlh6Y8Wzobsq57K7iVmR-7" value="" style="shape=partialRectangle;collapsible=0;dropTarget=0;pointerEvents=0;fillColor=none;top=0;left=0;bottom=0;right=0;points=[[0,0.5],[1,0.5]];portConstraint=eastwest;strokeColor=#909090;fontColor=#1A1A1A;" parent="Nlh6Y8Wzobsq57K7iVmR-0" vertex="1">
                    <mxGeometry y="90" width="180" height="30" as="geometry"/>
                </mxCell>
                <mxCell id="Nlh6Y8Wzobsq57K7iVmR-8" value="" style="shape=partialRectangle;connectable=0;fillColor=none;top=0;left=0;bottom=0;right=0;editable=1;overflow=hidden;strokeColor=#909090;fontColor=#1A1A1A;" parent="Nlh6Y8Wzobsq57K7iVmR-7" vertex="1">
                    <mxGeometry width="30" height="30" as="geometry">
                        <mxRectangle width="30" height="30" as="alternateBounds"/>
                    </mxGeometry>
                </mxCell>
                <mxCell id="Nlh6Y8Wzobsq57K7iVmR-9" value="TelNumber" style="shape=partialRectangle;connectable=0;fillColor=none;top=0;left=0;bottom=0;right=0;align=left;spacingLeft=6;overflow=hidden;strokeColor=#909090;fontColor=#1A1A1A;" parent="Nlh6Y8Wzobsq57K7iVmR-7" vertex="1">
                    <mxGeometry x="30" width="150" height="30" as="geometry">
                        <mxRectangle width="150" height="30" as="alternateBounds"/>
                    </mxGeometry>
                </mxCell>
                <mxCell id="12" style="shape=partialRectangle;collapsible=0;dropTarget=0;pointerEvents=0;fillColor=none;top=0;left=0;bottom=0;right=0;points=[[0,0.5],[1,0.5]];portConstraint=eastwest;strokeColor=#909090;fontColor=#1A1A1A;" parent="Nlh6Y8Wzobsq57K7iVmR-0" vertex="1">
                    <mxGeometry y="120" width="180" height="30" as="geometry"/>
                </mxCell>
                <mxCell id="13" style="shape=partialRectangle;connectable=0;fillColor=none;top=0;left=0;bottom=0;right=0;editable=1;overflow=hidden;strokeColor=#909090;fontColor=#1A1A1A;" parent="12" vertex="1">
                    <mxGeometry width="30" height="30" as="geometry">
                        <mxRectangle width="30" height="30" as="alternateBounds"/>
                    </mxGeometry>
                </mxCell>
                <mxCell id="14" value="Name" style="shape=partialRectangle;connectable=0;fillColor=none;top=0;left=0;bottom=0;right=0;align=left;spacingLeft=6;overflow=hidden;strokeColor=#909090;fontColor=#1A1A1A;" parent="12" vertex="1">
                    <mxGeometry x="30" width="150" height="30" as="geometry">
                        <mxRectangle width="150" height="30" as="alternateBounds"/>
                    </mxGeometry>
                </mxCell>
                <mxCell id="9" style="shape=partialRectangle;collapsible=0;dropTarget=0;pointerEvents=0;fillColor=none;top=0;left=0;bottom=0;right=0;points=[[0,0.5],[1,0.5]];portConstraint=eastwest;strokeColor=#909090;fontColor=#1A1A1A;" parent="Nlh6Y8Wzobsq57K7iVmR-0" vertex="1">
                    <mxGeometry y="150" width="180" height="30" as="geometry"/>
                </mxCell>
                <mxCell id="10" style="shape=partialRectangle;connectable=0;fillColor=none;top=0;left=0;bottom=0;right=0;editable=1;overflow=hidden;strokeColor=#909090;fontColor=#1A1A1A;" parent="9" vertex="1">
                    <mxGeometry width="30" height="30" as="geometry">
                        <mxRectangle width="30" height="30" as="alternateBounds"/>
                    </mxGeometry>
                </mxCell>
                <mxCell id="11" value="Surname" style="shape=partialRectangle;connectable=0;fillColor=none;top=0;left=0;bottom=0;right=0;align=left;spacingLeft=6;overflow=hidden;strokeColor=#909090;fontColor=#1A1A1A;" parent="9" vertex="1">
                    <mxGeometry x="30" width="150" height="30" as="geometry">
                        <mxRectangle width="150" height="30" as="alternateBounds"/>
                    </mxGeometry>
                </mxCell>
                <mxCell id="Nlh6Y8Wzobsq57K7iVmR-101" value="Ingredient" style="shape=table;startSize=30;container=1;collapsible=1;childLayout=tableLayout;fixedRows=1;rowLines=0;fontStyle=1;align=center;resizeLast=1;fillColor=#F5AB50;strokeColor=#909090;fontColor=#1A1A1A;" parent="kAJtJlJrq_F0AdrBs6Tl-1" vertex="1">
                    <mxGeometry x="1120" y="330" width="180" height="130" as="geometry"/>
                </mxCell>
                <mxCell id="Nlh6Y8Wzobsq57K7iVmR-102" value="" style="shape=partialRectangle;collapsible=0;dropTarget=0;pointerEvents=0;fillColor=none;top=0;left=0;bottom=1;right=0;points=[[0,0.5],[1,0.5]];portConstraint=eastwest;strokeColor=#909090;fontColor=#1A1A1A;" parent="Nlh6Y8Wzobsq57K7iVmR-101" vertex="1">
                    <mxGeometry y="30" width="180" height="30" as="geometry"/>
                </mxCell>
                <mxCell id="Nlh6Y8Wzobsq57K7iVmR-103" value="PK" style="shape=partialRectangle;connectable=0;fillColor=none;top=0;left=0;bottom=0;right=0;fontStyle=1;overflow=hidden;strokeColor=#909090;fontColor=#1A1A1A;" parent="Nlh6Y8Wzobsq57K7iVmR-102" vertex="1">
                    <mxGeometry width="30" height="30" as="geometry">
                        <mxRectangle width="30" height="30" as="alternateBounds"/>
                    </mxGeometry>
                </mxCell>
                <mxCell id="Nlh6Y8Wzobsq57K7iVmR-104" value="IngredientID" style="shape=partialRectangle;connectable=0;fillColor=none;top=0;left=0;bottom=0;right=0;align=left;spacingLeft=6;fontStyle=5;overflow=hidden;strokeColor=#909090;fontColor=#1A1A1A;" parent="Nlh6Y8Wzobsq57K7iVmR-102" vertex="1">
                    <mxGeometry x="30" width="150" height="30" as="geometry">
                        <mxRectangle width="150" height="30" as="alternateBounds"/>
                    </mxGeometry>
                </mxCell>
                <mxCell id="Nlh6Y8Wzobsq57K7iVmR-105" value="" style="shape=partialRectangle;collapsible=0;dropTarget=0;pointerEvents=0;fillColor=none;top=0;left=0;bottom=0;right=0;points=[[0,0.5],[1,0.5]];portConstraint=eastwest;strokeColor=#909090;fontColor=#1A1A1A;" parent="Nlh6Y8Wzobsq57K7iVmR-101" vertex="1">
                    <mxGeometry y="60" width="180" height="30" as="geometry"/>
                </mxCell>
                <mxCell id="Nlh6Y8Wzobsq57K7iVmR-106" value="" style="shape=partialRectangle;connectable=0;fillColor=none;top=0;left=0;bottom=0;right=0;editable=1;overflow=hidden;strokeColor=#909090;fontColor=#1A1A1A;" parent="Nlh6Y8Wzobsq57K7iVmR-105" vertex="1">
                    <mxGeometry width="30" height="30" as="geometry">
                        <mxRectangle width="30" height="30" as="alternateBounds"/>
                    </mxGeometry>
                </mxCell>
                <mxCell id="Nlh6Y8Wzobsq57K7iVmR-107" value="DateOfDelivery" style="shape=partialRectangle;connectable=0;fillColor=none;top=0;left=0;bottom=0;right=0;align=left;spacingLeft=6;overflow=hidden;strokeColor=#909090;fontColor=#1A1A1A;" parent="Nlh6Y8Wzobsq57K7iVmR-105" vertex="1">
                    <mxGeometry x="30" width="150" height="30" as="geometry">
                        <mxRectangle width="150" height="30" as="alternateBounds"/>
                    </mxGeometry>
                </mxCell>
                <mxCell id="Nlh6Y8Wzobsq57K7iVmR-108" value="" style="shape=partialRectangle;collapsible=0;dropTarget=0;pointerEvents=0;fillColor=none;top=0;left=0;bottom=0;right=0;points=[[0,0.5],[1,0.5]];portConstraint=eastwest;strokeColor=#909090;fontColor=#1A1A1A;" parent="Nlh6Y8Wzobsq57K7iVmR-101" vertex="1">
                    <mxGeometry y="90" width="180" height="30" as="geometry"/>
                </mxCell>
                <mxCell id="Nlh6Y8Wzobsq57K7iVmR-109" value="" style="shape=partialRectangle;connectable=0;fillColor=none;top=0;left=0;bottom=0;right=0;editable=1;overflow=hidden;strokeColor=#909090;fontColor=#1A1A1A;" parent="Nlh6Y8Wzobsq57K7iVmR-108" vertex="1">
                    <mxGeometry width="30" height="30" as="geometry">
                        <mxRectangle width="30" height="30" as="alternateBounds"/>
                    </mxGeometry>
                </mxCell>
                <mxCell id="Nlh6Y8Wzobsq57K7iVmR-110" value="AmountInStock" style="shape=partialRectangle;connectable=0;fillColor=none;top=0;left=0;bottom=0;right=0;align=left;spacingLeft=6;overflow=hidden;strokeColor=#909090;fontColor=#1A1A1A;" parent="Nlh6Y8Wzobsq57K7iVmR-108" vertex="1">
                    <mxGeometry x="30" width="150" height="30" as="geometry">
                        <mxRectangle width="150" height="30" as="alternateBounds"/>
                    </mxGeometry>
                </mxCell>
                <mxCell id="7uCQopmuCqB1mjJSyksK-84" style="rounded=0;orthogonalLoop=1;jettySize=auto;html=1;exitX=0.48;exitY=0.998;exitDx=0;exitDy=0;startArrow=none;startFill=0;endArrow=none;endFill=0;exitPerimeter=0;strokeColor=#030303;" parent="kAJtJlJrq_F0AdrBs6Tl-1" source="0J9ipkvfnj8oxrN4Rvkm-1" edge="1">
                    <mxGeometry relative="1" as="geometry">
                        <mxPoint x="692" y="405" as="targetPoint"/>
                        <mxPoint x="691.75" y="381.3599999999999" as="sourcePoint"/>
                    </mxGeometry>
                </mxCell>
                <mxCell id="0J9ipkvfnj8oxrN4Rvkm-0" value="Amount" style="swimlane;fontStyle=0;childLayout=stackLayout;horizontal=1;startSize=26;horizontalStack=0;resizeParent=1;resizeParentMax=0;resizeLast=0;collapsible=1;marginBottom=0;align=center;fontSize=14;fillColor=#F5AB50;strokeColor=#909090;fontColor=#1A1A1A;" parent="kAJtJlJrq_F0AdrBs6Tl-1" vertex="1">
                    <mxGeometry x="630" y="330" width="130" height="56" as="geometry"/>
                </mxCell>
                <mxCell id="0J9ipkvfnj8oxrN4Rvkm-1" value="TotalPrice" style="text;strokeColor=none;fillColor=none;spacingLeft=4;spacingRight=4;overflow=hidden;rotatable=0;points=[[0,0.5],[1,0.5]];portConstraint=eastwest;fontSize=12;fontColor=#1A1A1A;" parent="0J9ipkvfnj8oxrN4Rvkm-0" vertex="1">
                    <mxGeometry y="26" width="130" height="30" as="geometry"/>
                </mxCell>
                <mxCell id="7uCQopmuCqB1mjJSyksK-26" value="1" style="resizable=0;html=1;align=left;verticalAlign=bottom;fillColor=#F5AB50;strokeColor=#909090;fontColor=#1A1A1A;" parent="kAJtJlJrq_F0AdrBs6Tl-1" connectable="0" vertex="1">
                    <mxGeometry x="210" y="135" as="geometry">
                        <mxPoint x="-17" y="19" as="offset"/>
                    </mxGeometry>
                </mxCell>
                <mxCell id="7uCQopmuCqB1mjJSyksK-38" style="edgeStyle=orthogonalEdgeStyle;rounded=0;orthogonalLoop=1;jettySize=auto;html=1;exitX=0.5;exitY=0;exitDx=0;exitDy=0;startArrow=none;startFill=0;endArrow=block;endFill=0;strokeColor=#030303;entryX=0.5;entryY=1;entryDx=0;entryDy=0;" parent="kAJtJlJrq_F0AdrBs6Tl-1" source="7uCQopmuCqB1mjJSyksK-27" target="Nlh6Y8Wzobsq57K7iVmR-0" edge="1">
                    <mxGeometry relative="1" as="geometry">
                        <mxPoint x="90" y="190" as="targetPoint"/>
                        <Array as="points">
                            <mxPoint x="-5" y="240"/>
                            <mxPoint x="100" y="240"/>
                        </Array>
                    </mxGeometry>
                </mxCell>
                <mxCell id="7uCQopmuCqB1mjJSyksK-27" value="Employee" style="swimlane;fontStyle=1;childLayout=stackLayout;horizontal=1;startSize=26;horizontalStack=0;resizeParent=1;resizeParentMax=0;resizeLast=0;collapsible=1;marginBottom=0;align=center;fontSize=12;fillColor=#F5AB50;strokeColor=#909090;fontColor=#1A1A1A;" parent="kAJtJlJrq_F0AdrBs6Tl-1" vertex="1">
                    <mxGeometry x="-70" y="269" width="130" height="86" as="geometry">
                        <mxRectangle x="-70" y="269" width="90" height="26" as="alternateBounds"/>
                    </mxGeometry>
                </mxCell>
                <mxCell id="7uCQopmuCqB1mjJSyksK-32" value="DateOfBirth" style="text;strokeColor=none;fillColor=none;spacingLeft=4;spacingRight=4;overflow=hidden;rotatable=0;points=[[0,0.5],[1,0.5]];portConstraint=eastwest;fontSize=12;fontColor=#1A1A1A;" parent="7uCQopmuCqB1mjJSyksK-27" vertex="1">
                    <mxGeometry y="26" width="130" height="30" as="geometry"/>
                </mxCell>
                <mxCell id="7uCQopmuCqB1mjJSyksK-40" value="ContractType" style="text;strokeColor=none;fillColor=none;spacingLeft=4;spacingRight=4;overflow=hidden;rotatable=0;points=[[0,0.5],[1,0.5]];portConstraint=eastwest;fontSize=12;fontColor=#1A1A1A;" parent="7uCQopmuCqB1mjJSyksK-27" vertex="1">
                    <mxGeometry y="56" width="130" height="30" as="geometry"/>
                </mxCell>
                <mxCell id="7uCQopmuCqB1mjJSyksK-22" style="edgeStyle=orthogonalEdgeStyle;rounded=0;orthogonalLoop=1;jettySize=auto;html=1;entryX=0;entryY=0.5;entryDx=0;entryDy=0;endArrow=none;endFill=0;labelBackgroundColor=#EEEEEE;strokeColor=#182E3E;fontColor=#1A1A1A;exitX=0.158;exitY=1.029;exitDx=0;exitDy=0;exitPerimeter=0;" parent="7uCQopmuCqB1mjJSyksK-27" source="7uCQopmuCqB1mjJSyksK-40" edge="1">
                    <mxGeometry relative="1" as="geometry">
                        <mxPoint x="20" y="158" as="sourcePoint"/>
                        <mxPoint y="65" as="targetPoint"/>
                        <Array as="points">
                            <mxPoint x="21" y="168"/>
                            <mxPoint x="-70" y="168"/>
                            <mxPoint x="-70" y="65"/>
                        </Array>
                    </mxGeometry>
                </mxCell>
                <mxCell id="7uCQopmuCqB1mjJSyksK-23" value="1..*" style="edgeLabel;html=1;align=center;verticalAlign=middle;resizable=0;points=[];labelBackgroundColor=none;fontColor=#1A1A1A;" parent="7uCQopmuCqB1mjJSyksK-22" vertex="1" connectable="0">
                    <mxGeometry x="0.8599" y="1" relative="1" as="geometry">
                        <mxPoint x="55" y="31" as="offset"/>
                    </mxGeometry>
                </mxCell>
                <mxCell id="7uCQopmuCqB1mjJSyksK-24" value="Is superior to" style="edgeLabel;html=1;align=center;verticalAlign=middle;resizable=0;points=[];labelBackgroundColor=none;fontColor=#1A1A1A;" parent="7uCQopmuCqB1mjJSyksK-22" vertex="1" connectable="0">
                    <mxGeometry x="-0.3771" relative="1" as="geometry">
                        <mxPoint x="-14" y="-10" as="offset"/>
                    </mxGeometry>
                </mxCell>
                <mxCell id="7uCQopmuCqB1mjJSyksK-25" value="0..1" style="edgeLabel;html=1;align=center;verticalAlign=middle;resizable=0;points=[];labelBackgroundColor=none;fontColor=#1A1A1A;" parent="7uCQopmuCqB1mjJSyksK-22" vertex="1" connectable="0">
                    <mxGeometry x="-0.8687" y="1" relative="1" as="geometry">
                        <mxPoint x="-34" y="-55" as="offset"/>
                    </mxGeometry>
                </mxCell>
                <mxCell id="7uCQopmuCqB1mjJSyksK-53" value="MenuItem" style="shape=table;startSize=30;container=1;collapsible=1;childLayout=tableLayout;fixedRows=1;rowLines=0;fontStyle=1;align=center;resizeLast=1;fillColor=#F5AB50;strokeColor=#909090;fontColor=#1A1A1A;" parent="kAJtJlJrq_F0AdrBs6Tl-1" vertex="1">
                    <mxGeometry x="830" y="330" width="180" height="190" as="geometry"/>
                </mxCell>
                <mxCell id="7uCQopmuCqB1mjJSyksK-54" value="" style="shape=partialRectangle;collapsible=0;dropTarget=0;pointerEvents=0;fillColor=none;top=0;left=0;bottom=1;right=0;points=[[0,0.5],[1,0.5]];portConstraint=eastwest;strokeColor=#909090;fontColor=#1A1A1A;" parent="7uCQopmuCqB1mjJSyksK-53" vertex="1">
                    <mxGeometry y="30" width="180" height="30" as="geometry"/>
                </mxCell>
                <mxCell id="7uCQopmuCqB1mjJSyksK-55" value="PK" style="shape=partialRectangle;connectable=0;fillColor=none;top=0;left=0;bottom=0;right=0;fontStyle=1;overflow=hidden;strokeColor=#909090;fontColor=#1A1A1A;" parent="7uCQopmuCqB1mjJSyksK-54" vertex="1">
                    <mxGeometry width="30" height="30" as="geometry">
                        <mxRectangle width="30" height="30" as="alternateBounds"/>
                    </mxGeometry>
                </mxCell>
                <mxCell id="7uCQopmuCqB1mjJSyksK-56" value="ItemIDÂ " style="shape=partialRectangle;connectable=0;fillColor=none;top=0;left=0;bottom=0;right=0;align=left;spacingLeft=6;fontStyle=5;overflow=hidden;strokeColor=#909090;fontColor=#1A1A1A;" parent="7uCQopmuCqB1mjJSyksK-54" vertex="1">
                    <mxGeometry x="30" width="150" height="30" as="geometry">
                        <mxRectangle width="150" height="30" as="alternateBounds"/>
                    </mxGeometry>
                </mxCell>
                <mxCell id="7uCQopmuCqB1mjJSyksK-57" value="" style="shape=partialRectangle;collapsible=0;dropTarget=0;pointerEvents=0;fillColor=none;top=0;left=0;bottom=0;right=0;points=[[0,0.5],[1,0.5]];portConstraint=eastwest;strokeColor=#909090;fontColor=#1A1A1A;" parent="7uCQopmuCqB1mjJSyksK-53" vertex="1">
                    <mxGeometry y="60" width="180" height="30" as="geometry"/>
                </mxCell>
                <mxCell id="7uCQopmuCqB1mjJSyksK-58" value="" style="shape=partialRectangle;connectable=0;fillColor=none;top=0;left=0;bottom=0;right=0;editable=1;overflow=hidden;strokeColor=#909090;fontColor=#1A1A1A;" parent="7uCQopmuCqB1mjJSyksK-57" vertex="1">
                    <mxGeometry width="30" height="30" as="geometry">
                        <mxRectangle width="30" height="30" as="alternateBounds"/>
                    </mxGeometry>
                </mxCell>
                <mxCell id="7uCQopmuCqB1mjJSyksK-59" value="Name" style="shape=partialRectangle;connectable=0;fillColor=none;top=0;left=0;bottom=0;right=0;align=left;spacingLeft=6;overflow=hidden;strokeColor=#909090;fontColor=#1A1A1A;" parent="7uCQopmuCqB1mjJSyksK-57" vertex="1">
                    <mxGeometry x="30" width="150" height="30" as="geometry">
                        <mxRectangle width="150" height="30" as="alternateBounds"/>
                    </mxGeometry>
                </mxCell>
                <mxCell id="7uCQopmuCqB1mjJSyksK-63" value="" style="shape=partialRectangle;collapsible=0;dropTarget=0;pointerEvents=0;fillColor=none;top=0;left=0;bottom=0;right=0;points=[[0,0.5],[1,0.5]];portConstraint=eastwest;strokeColor=#909090;fontColor=#1A1A1A;" parent="7uCQopmuCqB1mjJSyksK-53" vertex="1">
                    <mxGeometry y="90" width="180" height="30" as="geometry"/>
                </mxCell>
                <mxCell id="7uCQopmuCqB1mjJSyksK-64" value="" style="shape=partialRectangle;connectable=0;fillColor=none;top=0;left=0;bottom=0;right=0;editable=1;overflow=hidden;strokeColor=#909090;fontColor=#1A1A1A;" parent="7uCQopmuCqB1mjJSyksK-63" vertex="1">
                    <mxGeometry width="30" height="30" as="geometry">
                        <mxRectangle width="30" height="30" as="alternateBounds"/>
                    </mxGeometry>
                </mxCell>
                <mxCell id="7uCQopmuCqB1mjJSyksK-65" value="PricePerItemÂ " style="shape=partialRectangle;connectable=0;fillColor=none;top=0;left=0;bottom=0;right=0;align=left;spacingLeft=6;overflow=hidden;strokeColor=#909090;fontColor=#1A1A1A;" parent="7uCQopmuCqB1mjJSyksK-63" vertex="1">
                    <mxGeometry x="30" width="150" height="30" as="geometry">
                        <mxRectangle width="150" height="30" as="alternateBounds"/>
                    </mxGeometry>
                </mxCell>
                <mxCell id="7uCQopmuCqB1mjJSyksK-66" style="shape=partialRectangle;collapsible=0;dropTarget=0;pointerEvents=0;fillColor=none;top=0;left=0;bottom=0;right=0;points=[[0,0.5],[1,0.5]];portConstraint=eastwest;strokeColor=#909090;fontColor=#1A1A1A;" parent="7uCQopmuCqB1mjJSyksK-53" vertex="1">
                    <mxGeometry y="120" width="180" height="30" as="geometry"/>
                </mxCell>
                <mxCell id="7uCQopmuCqB1mjJSyksK-67" style="shape=partialRectangle;connectable=0;fillColor=none;top=0;left=0;bottom=0;right=0;editable=1;overflow=hidden;strokeColor=#909090;fontColor=#1A1A1A;" parent="7uCQopmuCqB1mjJSyksK-66" vertex="1">
                    <mxGeometry width="30" height="30" as="geometry">
                        <mxRectangle width="30" height="30" as="alternateBounds"/>
                    </mxGeometry>
                </mxCell>
                <mxCell id="7uCQopmuCqB1mjJSyksK-68" value="AmountInStock" style="shape=partialRectangle;connectable=0;fillColor=none;top=0;left=0;bottom=0;right=0;align=left;spacingLeft=6;overflow=hidden;strokeColor=#909090;fontColor=#1A1A1A;" parent="7uCQopmuCqB1mjJSyksK-66" vertex="1">
                    <mxGeometry x="30" width="150" height="30" as="geometry">
                        <mxRectangle width="150" height="30" as="alternateBounds"/>
                    </mxGeometry>
                </mxCell>
                <mxCell id="6" style="shape=partialRectangle;collapsible=0;dropTarget=0;pointerEvents=0;fillColor=none;top=0;left=0;bottom=0;right=0;points=[[0,0.5],[1,0.5]];portConstraint=eastwest;strokeColor=#909090;fontColor=#1A1A1A;" parent="7uCQopmuCqB1mjJSyksK-53" vertex="1">
                    <mxGeometry y="150" width="180" height="30" as="geometry"/>
                </mxCell>
                <mxCell id="7" style="shape=partialRectangle;connectable=0;fillColor=none;top=0;left=0;bottom=0;right=0;editable=1;overflow=hidden;strokeColor=#909090;fontColor=#1A1A1A;" parent="6" vertex="1">
                    <mxGeometry width="30" height="30" as="geometry">
                        <mxRectangle width="30" height="30" as="alternateBounds"/>
                    </mxGeometry>
                </mxCell>
                <mxCell id="8" value="Allergens" style="shape=partialRectangle;connectable=0;fillColor=none;top=0;left=0;bottom=0;right=0;align=left;spacingLeft=6;overflow=hidden;strokeColor=#909090;fontColor=#1A1A1A;" parent="6" vertex="1">
                    <mxGeometry x="30" width="150" height="30" as="geometry">
                        <mxRectangle width="150" height="30" as="alternateBounds"/>
                    </mxGeometry>
                </mxCell>
                <mxCell id="7uCQopmuCqB1mjJSyksK-85" style="edgeStyle=orthogonalEdgeStyle;rounded=0;orthogonalLoop=1;jettySize=auto;html=1;exitX=0.5;exitY=0;exitDx=0;exitDy=0;entryX=0.5;entryY=1;entryDx=0;entryDy=0;startArrow=none;startFill=0;endArrow=block;endFill=0;strokeColor=#030303;" parent="kAJtJlJrq_F0AdrBs6Tl-1" source="7uCQopmuCqB1mjJSyksK-69" target="7uCQopmuCqB1mjJSyksK-53" edge="1">
                    <mxGeometry relative="1" as="geometry"/>
                </mxCell>
                <mxCell id="7uCQopmuCqB1mjJSyksK-69" value="Drink" style="swimlane;fontStyle=0;childLayout=stackLayout;horizontal=1;startSize=26;horizontalStack=0;resizeParent=1;resizeParentMax=0;resizeLast=0;collapsible=1;marginBottom=0;align=center;fontSize=14;fillColor=#F5AB50;strokeColor=#909090;fontColor=#1A1A1A;" parent="kAJtJlJrq_F0AdrBs6Tl-1" vertex="1">
                    <mxGeometry x="750" y="600" width="130" height="56" as="geometry"/>
                </mxCell>
                <mxCell id="7uCQopmuCqB1mjJSyksK-71" value="Volume" style="text;strokeColor=none;fillColor=none;spacingLeft=4;spacingRight=4;overflow=hidden;rotatable=0;points=[[0,0.5],[1,0.5]];portConstraint=eastwest;fontSize=12;fontColor=#1A1A1A;" parent="7uCQopmuCqB1mjJSyksK-69" vertex="1">
                    <mxGeometry y="26" width="130" height="30" as="geometry"/>
                </mxCell>
                <mxCell id="7uCQopmuCqB1mjJSyksK-86" style="edgeStyle=orthogonalEdgeStyle;rounded=0;orthogonalLoop=1;jettySize=auto;html=1;exitX=0.5;exitY=0;exitDx=0;exitDy=0;startArrow=none;startFill=0;endArrow=block;endFill=0;strokeColor=#030303;" parent="kAJtJlJrq_F0AdrBs6Tl-1" source="7uCQopmuCqB1mjJSyksK-76" edge="1">
                    <mxGeometry relative="1" as="geometry">
                        <mxPoint x="920" y="520" as="targetPoint"/>
                    </mxGeometry>
                </mxCell>
                <mxCell id="7uCQopmuCqB1mjJSyksK-76" value="Dish" style="swimlane;fontStyle=0;childLayout=stackLayout;horizontal=1;startSize=26;horizontalStack=0;resizeParent=1;resizeParentMax=0;resizeLast=0;collapsible=1;marginBottom=0;align=center;fontSize=14;fillColor=#F5AB50;strokeColor=#909090;fontColor=#1A1A1A;" parent="kAJtJlJrq_F0AdrBs6Tl-1" vertex="1">
                    <mxGeometry x="940" y="600" width="130" height="80" as="geometry"/>
                </mxCell>
                <mxCell id="7uCQopmuCqB1mjJSyksK-77" value="Weight" style="text;strokeColor=none;fillColor=none;spacingLeft=4;spacingRight=4;overflow=hidden;rotatable=0;points=[[0,0.5],[1,0.5]];portConstraint=eastwest;fontSize=12;fontColor=#1A1A1A;" parent="7uCQopmuCqB1mjJSyksK-76" vertex="1">
                    <mxGeometry y="26" width="130" height="30" as="geometry"/>
                </mxCell>
                <mxCell id="0J9ipkvfnj8oxrN4Rvkm-3" value="PortionSize" style="text;strokeColor=none;fillColor=none;spacingLeft=4;spacingRight=4;overflow=hidden;rotatable=0;points=[[0,0.5],[1,0.5]];portConstraint=eastwest;fontSize=12;fontColor=#1A1A1A;" parent="7uCQopmuCqB1mjJSyksK-76" vertex="1">
                    <mxGeometry y="56" width="130" height="24" as="geometry"/>
                </mxCell>
                <mxCell id="zIDYwYLDXIMm-XfQ-lUx-3" value="" style="endArrow=none;html=1;rounded=0;labelBackgroundColor=#EEEEEE;strokeColor=#182E3E;fontColor=#1A1A1A;edgeStyle=orthogonalEdgeStyle;" parent="kAJtJlJrq_F0AdrBs6Tl-1" edge="1">
                    <mxGeometry relative="1" as="geometry">
                        <mxPoint x="166" y="183" as="sourcePoint"/>
                        <mxPoint x="380" y="383" as="targetPoint"/>
                        <Array as="points">
                            <mxPoint x="166" y="383"/>
                        </Array>
                    </mxGeometry>
                </mxCell>
                <mxCell id="zIDYwYLDXIMm-XfQ-lUx-4" value="0..1" style="resizable=0;html=1;align=left;verticalAlign=bottom;fillColor=#F5AB50;strokeColor=#909090;fontColor=#1A1A1A;" parent="zIDYwYLDXIMm-XfQ-lUx-3" connectable="0" vertex="1">
                    <mxGeometry x="-1" relative="1" as="geometry">
                        <mxPoint x="-26" y="20" as="offset"/>
                    </mxGeometry>
                </mxCell>
                <mxCell id="zIDYwYLDXIMm-XfQ-lUx-5" value="0..*" style="resizable=0;html=1;align=right;verticalAlign=bottom;fillColor=#F5AB50;strokeColor=#909090;fontColor=#1A1A1A;" parent="zIDYwYLDXIMm-XfQ-lUx-3" connectable="0" vertex="1">
                    <mxGeometry x="1" relative="1" as="geometry">
                        <mxPoint x="-2" y="1" as="offset"/>
                    </mxGeometry>
                </mxCell>
                <mxCell id="zIDYwYLDXIMm-XfQ-lUx-6" value="Ordered" style="edgeLabel;html=1;align=center;verticalAlign=middle;resizable=0;points=[];labelBackgroundColor=none;fontColor=#1A1A1A;" parent="zIDYwYLDXIMm-XfQ-lUx-3" vertex="1" connectable="0">
                    <mxGeometry x="0.1833" y="-1" relative="1" as="geometry">
                        <mxPoint x="33" y="-11" as="offset"/>
                    </mxGeometry>
                </mxCell>
                <mxCell id="y0LZA4cuyJM-tUqB28Nv-4" value="Contains" style="endArrow=none;html=1;rounded=0;entryX=0.5;entryY=1;entryDx=0;entryDy=0;exitX=0.5;exitY=0;exitDx=0;exitDy=0;strokeColor=#030303;labelBackgroundColor=none;fontColor=#030303;" parent="kAJtJlJrq_F0AdrBs6Tl-1" source="Nlh6Y8Wzobsq57K7iVmR-45" target="Nlh6Y8Wzobsq57K7iVmR-32" edge="1">
                    <mxGeometry x="-0.0909" y="-30" relative="1" as="geometry">
                        <mxPoint x="300" y="470" as="sourcePoint"/>
                        <mxPoint x="460" y="470" as="targetPoint"/>
                        <mxPoint as="offset"/>
                    </mxGeometry>
                </mxCell>
                <mxCell id="y0LZA4cuyJM-tUqB28Nv-5" value="1" style="resizable=0;html=1;align=left;verticalAlign=bottom;" parent="y0LZA4cuyJM-tUqB28Nv-4" connectable="0" vertex="1">
                    <mxGeometry x="-1" relative="1" as="geometry"/>
                </mxCell>
                <mxCell id="y0LZA4cuyJM-tUqB28Nv-6" value="1" style="resizable=0;html=1;align=right;verticalAlign=bottom;" parent="y0LZA4cuyJM-tUqB28Nv-4" connectable="0" vertex="1">
                    <mxGeometry x="1" relative="1" as="geometry">
                        <mxPoint x="10" y="20" as="offset"/>
                    </mxGeometry>
                </mxCell>
            </root>
        </mxGraphModel>
    </diagram>
    <diagram id="_anUfQeNQvGP6yG3Arqs" name="UCD">
        <mxGraphModel dx="1056" dy="1298" grid="1" gridSize="10" guides="1" tooltips="1" connect="1" arrows="1" fold="1" page="1" pageScale="1" pageWidth="1169" pageHeight="827" math="0" shadow="0">
            <root>
                <mxCell id="0"/>
                <mxCell id="1" parent="0"/>
                <mxCell id="2" value="VytvoÅit a zruÅ¡it&lt;br&gt;rezervaci" style="ellipse;whiteSpace=wrap;html=1;fillColor=#e3c800;strokeColor=#B09500;fontColor=#000000;" parent="1" vertex="1">
                    <mxGeometry x="270" y="30" width="150" height="80" as="geometry"/>
                </mxCell>
                <mxCell id="12" style="rounded=0;orthogonalLoop=1;jettySize=auto;html=1;exitX=1;exitY=0.3333333333333333;exitDx=0;exitDy=0;exitPerimeter=0;entryX=0;entryY=0.5;entryDx=0;entryDy=0;endArrow=open;endFill=0;" parent="1" source="3" target="2" edge="1">
                    <mxGeometry relative="1" as="geometry"/>
                </mxCell>
                <mxCell id="13" style="edgeStyle=none;rounded=0;orthogonalLoop=1;jettySize=auto;html=1;entryX=0;entryY=0.5;entryDx=0;entryDy=0;endArrow=open;endFill=0;exitX=1;exitY=0.3333333333333333;exitDx=0;exitDy=0;exitPerimeter=0;" parent="1" source="3" target="9" edge="1">
                    <mxGeometry relative="1" as="geometry">
                        <mxPoint x="260" y="200" as="sourcePoint"/>
                    </mxGeometry>
                </mxCell>
                <mxCell id="14" style="edgeStyle=none;rounded=0;orthogonalLoop=1;jettySize=auto;html=1;exitX=1;exitY=0.3333333333333333;exitDx=0;exitDy=0;exitPerimeter=0;entryX=0;entryY=0.5;entryDx=0;entryDy=0;endArrow=open;endFill=0;" parent="1" source="3" target="10" edge="1">
                    <mxGeometry relative="1" as="geometry"/>
                </mxCell>
                <mxCell id="15" style="edgeStyle=none;rounded=0;orthogonalLoop=1;jettySize=auto;html=1;exitX=1;exitY=0.3333333333333333;exitDx=0;exitDy=0;exitPerimeter=0;entryX=0;entryY=0.5;entryDx=0;entryDy=0;endArrow=open;endFill=0;" parent="1" source="3" target="11" edge="1">
                    <mxGeometry relative="1" as="geometry"/>
                </mxCell>
                <mxCell id="34" style="edgeStyle=none;rounded=0;orthogonalLoop=1;jettySize=auto;html=1;exitX=0;exitY=0.3333333333333333;exitDx=0;exitDy=0;exitPerimeter=0;entryX=1;entryY=0.5;entryDx=0;entryDy=0;endArrow=open;endFill=0;" parent="1" source="6" target="27" edge="1">
                    <mxGeometry relative="1" as="geometry">
                        <Array as="points"/>
                    </mxGeometry>
                </mxCell>
                <mxCell id="35" style="edgeStyle=none;rounded=0;orthogonalLoop=1;jettySize=auto;html=1;exitX=0;exitY=0.3333333333333333;exitDx=0;exitDy=0;exitPerimeter=0;entryX=1;entryY=0.5;entryDx=0;entryDy=0;endArrow=open;endFill=0;" parent="1" source="6" target="24" edge="1">
                    <mxGeometry relative="1" as="geometry">
                        <Array as="points">
                            <mxPoint x="720" y="480"/>
                        </Array>
                    </mxGeometry>
                </mxCell>
                <mxCell id="36" style="edgeStyle=none;rounded=0;orthogonalLoop=1;jettySize=auto;html=1;exitX=0;exitY=0.3333333333333333;exitDx=0;exitDy=0;exitPerimeter=0;entryX=1;entryY=0.5;entryDx=0;entryDy=0;endArrow=open;endFill=0;" parent="1" source="6" target="29" edge="1">
                    <mxGeometry relative="1" as="geometry">
                        <Array as="points">
                            <mxPoint x="720" y="760"/>
                        </Array>
                    </mxGeometry>
                </mxCell>
                <mxCell id="40" style="edgeStyle=none;rounded=0;orthogonalLoop=1;jettySize=auto;html=1;exitX=1;exitY=0.3333333333333333;exitDx=0;exitDy=0;exitPerimeter=0;entryX=0;entryY=0.5;entryDx=0;entryDy=0;endArrow=open;endFill=0;" parent="1" source="6" target="38" edge="1">
                    <mxGeometry relative="1" as="geometry"/>
                </mxCell>
                <mxCell id="41" style="edgeStyle=none;rounded=0;orthogonalLoop=1;jettySize=auto;html=1;exitX=1;exitY=0.3333333333333333;exitDx=0;exitDy=0;exitPerimeter=0;entryX=0;entryY=0.5;entryDx=0;entryDy=0;endArrow=open;endFill=0;" parent="1" source="6" target="39" edge="1">
                    <mxGeometry relative="1" as="geometry"/>
                </mxCell>
                <mxCell id="ImCl9rovs1i5wyOq3UeP-42" style="edgeStyle=none;rounded=0;orthogonalLoop=1;jettySize=auto;html=1;exitX=1;exitY=0.3333333333333333;exitDx=0;exitDy=0;exitPerimeter=0;entryX=0;entryY=0.5;entryDx=0;entryDy=0;" parent="1" source="6" target="ImCl9rovs1i5wyOq3UeP-41" edge="1">
                    <mxGeometry relative="1" as="geometry"/>
                </mxCell>
                <mxCell id="vqx5k0jBY0WLTDmIteyV-42" style="rounded=0;orthogonalLoop=1;jettySize=auto;html=1;exitX=1;exitY=0.3333333333333333;exitDx=0;exitDy=0;exitPerimeter=0;entryX=0;entryY=0.5;entryDx=0;entryDy=0;" parent="1" source="6" target="vqx5k0jBY0WLTDmIteyV-41" edge="1">
                    <mxGeometry relative="1" as="geometry"/>
                </mxCell>
                <mxCell id="6" value="Majitel" style="shape=umlActor;verticalLabelPosition=bottom;verticalAlign=top;html=1;" parent="1" vertex="1">
                    <mxGeometry x="760" y="590" width="50" height="90" as="geometry"/>
                </mxCell>
                <mxCell id="25" style="edgeStyle=none;rounded=0;orthogonalLoop=1;jettySize=auto;html=1;exitX=1;exitY=0.3333333333333333;exitDx=0;exitDy=0;exitPerimeter=0;entryX=0;entryY=0.5;entryDx=0;entryDy=0;endArrow=open;endFill=0;" parent="1" source="7" target="24" edge="1">
                    <mxGeometry relative="1" as="geometry"/>
                </mxCell>
                <mxCell id="30" style="edgeStyle=none;rounded=0;orthogonalLoop=1;jettySize=auto;html=1;exitX=1;exitY=0.3333333333333333;exitDx=0;exitDy=0;exitPerimeter=0;entryX=0;entryY=0.5;entryDx=0;entryDy=0;endArrow=open;endFill=0;" parent="1" source="7" target="27" edge="1">
                    <mxGeometry relative="1" as="geometry"/>
                </mxCell>
                <mxCell id="31" style="edgeStyle=none;rounded=0;orthogonalLoop=1;jettySize=auto;html=1;exitX=1;exitY=0.3333333333333333;exitDx=0;exitDy=0;exitPerimeter=0;entryX=0;entryY=0.5;entryDx=0;entryDy=0;endArrow=open;endFill=0;" parent="1" source="7" target="29" edge="1">
                    <mxGeometry relative="1" as="geometry"/>
                </mxCell>
                <mxCell id="7" value="OdpovÄdnÃ½VedoucÃ­" style="shape=umlActor;verticalLabelPosition=bottom;verticalAlign=top;html=1;" parent="1" vertex="1">
                    <mxGeometry x="80" y="590" width="50" height="90" as="geometry"/>
                </mxCell>
                <mxCell id="9" value="Zadat objednÃ¡vku" style="ellipse;whiteSpace=wrap;html=1;fillColor=#e3c800;strokeColor=#B09500;fontColor=#000000;" parent="1" vertex="1">
                    <mxGeometry x="410" y="100" width="150" height="80" as="geometry"/>
                </mxCell>
                <mxCell id="10" value="Vydat objednÃ¡vku" style="ellipse;whiteSpace=wrap;html=1;fillColor=#e3c800;strokeColor=#B09500;fontColor=#000000;" parent="1" vertex="1">
                    <mxGeometry x="410" y="240" width="150" height="80" as="geometry"/>
                </mxCell>
                <mxCell id="11" value="Zadat zÃ¡znam o platbÄ" style="ellipse;whiteSpace=wrap;html=1;fillColor=#e3c800;strokeColor=#B09500;fontColor=#000000;" parent="1" vertex="1">
                    <mxGeometry x="270" y="310" width="150" height="80" as="geometry"/>
                </mxCell>
                <mxCell id="16" value="&amp;lt;&amp;lt;include&amp;gt;&amp;gt;" style="endArrow=open;endSize=12;dashed=1;html=1;entryX=1;entryY=0.5;entryDx=0;entryDy=0;exitX=0;exitY=0.5;exitDx=0;exitDy=0;" parent="1" source="18" target="2" edge="1">
                    <mxGeometry width="160" relative="1" as="geometry">
                        <mxPoint x="560" y="50" as="sourcePoint"/>
                        <mxPoint x="510" y="340" as="targetPoint"/>
                    </mxGeometry>
                </mxCell>
                <mxCell id="18" value="Zjistit dostupnost" style="ellipse;whiteSpace=wrap;html=1;fillColor=#e3c800;strokeColor=#B09500;fontColor=#000000;" parent="1" vertex="1">
                    <mxGeometry x="560" y="30" width="150" height="80" as="geometry"/>
                </mxCell>
                <mxCell id="19" value="Vytisknout ÃºÄtenku" style="ellipse;whiteSpace=wrap;html=1;fillColor=#e3c800;strokeColor=#B09500;fontColor=#000000;" parent="1" vertex="1">
                    <mxGeometry x="560" y="310" width="150" height="80" as="geometry"/>
                </mxCell>
                <mxCell id="20" value="&amp;lt;&amp;lt;include&amp;gt;&amp;gt;" style="endArrow=open;endSize=12;dashed=1;html=1;entryX=1;entryY=0.5;entryDx=0;entryDy=0;exitX=0;exitY=0.5;exitDx=0;exitDy=0;" parent="1" source="19" target="11" edge="1">
                    <mxGeometry width="160" relative="1" as="geometry">
                        <mxPoint x="570" y="150" as="sourcePoint"/>
                        <mxPoint x="430" y="150" as="targetPoint"/>
                    </mxGeometry>
                </mxCell>
                <mxCell id="23" style="edgeStyle=none;rounded=0;orthogonalLoop=1;jettySize=auto;html=1;exitX=1;exitY=0.3333333333333333;exitDx=0;exitDy=0;exitPerimeter=0;entryX=0;entryY=0.5;entryDx=0;entryDy=0;endArrow=open;endFill=0;" parent="1" source="3" target="22" edge="1">
                    <mxGeometry relative="1" as="geometry"/>
                </mxCell>
                <mxCell id="3" value="ZamÄstnanec" style="shape=umlActor;verticalLabelPosition=bottom;verticalAlign=top;html=1;" parent="1" vertex="1">
                    <mxGeometry x="80" y="180" width="50" height="90" as="geometry"/>
                </mxCell>
                <mxCell id="21" value="" style="endArrow=block;endSize=16;endFill=0;html=1;exitX=0.5;exitY=0;exitDx=0;exitDy=0;exitPerimeter=0;" parent="1" source="7" edge="1">
                    <mxGeometry width="160" relative="1" as="geometry">
                        <mxPoint x="105" y="470" as="sourcePoint"/>
                        <mxPoint x="105" y="300" as="targetPoint"/>
                    </mxGeometry>
                </mxCell>
                <mxCell id="22" value="ZruÅ¡it objednÃ¡vku" style="ellipse;whiteSpace=wrap;html=1;fillColor=#e3c800;strokeColor=#B09500;fontColor=#000000;" parent="1" vertex="1">
                    <mxGeometry x="270" y="170" width="150" height="80" as="geometry"/>
                </mxCell>
                <mxCell id="24" value="Zobrazit pÅehled prodanÃ½ch jÃ­del a nÃ¡pojÅ¯" style="ellipse;whiteSpace=wrap;html=1;fillColor=#e3c800;strokeColor=#B09500;fontColor=#000000;" parent="1" vertex="1">
                    <mxGeometry x="270" y="440" width="150" height="80" as="geometry"/>
                </mxCell>
                <mxCell id="26" value="Upravit ceny" style="ellipse;whiteSpace=wrap;html=1;fillColor=#e3c800;strokeColor=#B09500;fontColor=#000000;" parent="1" vertex="1">
                    <mxGeometry x="500" y="510" width="150" height="80" as="geometry"/>
                </mxCell>
                <mxCell id="27" value="Upravit menu" style="ellipse;whiteSpace=wrap;html=1;fillColor=#e3c800;strokeColor=#B09500;fontColor=#000000;" parent="1" vertex="1">
                    <mxGeometry x="270" y="580" width="150" height="80" as="geometry"/>
                </mxCell>
                <mxCell id="28" value="Objednat suroviny" style="ellipse;whiteSpace=wrap;html=1;fillColor=#e3c800;strokeColor=#B09500;fontColor=#000000;" parent="1" vertex="1">
                    <mxGeometry x="500" y="650" width="150" height="80" as="geometry"/>
                </mxCell>
                <mxCell id="29" value="Zobrazit obsah skladu" style="ellipse;whiteSpace=wrap;html=1;fillColor=#e3c800;strokeColor=#B09500;fontColor=#000000;" parent="1" vertex="1">
                    <mxGeometry x="270" y="720" width="150" height="80" as="geometry"/>
                </mxCell>
                <mxCell id="32" value="&amp;lt;&amp;lt;extend&amp;gt;&amp;gt;" style="endArrow=open;endSize=12;dashed=1;html=1;entryX=0.052;entryY=0.713;entryDx=0;entryDy=0;exitX=0.955;exitY=0.302;exitDx=0;exitDy=0;exitPerimeter=0;entryPerimeter=0;" parent="1" source="29" target="28" edge="1">
                    <mxGeometry width="160" relative="1" as="geometry">
                        <mxPoint x="320" y="620" as="sourcePoint"/>
                        <mxPoint x="480" y="620" as="targetPoint"/>
                    </mxGeometry>
                </mxCell>
                <mxCell id="33" value="&amp;lt;&amp;lt;extend&amp;gt;&amp;gt;" style="endArrow=open;endSize=12;dashed=1;html=1;entryX=0.033;entryY=0.705;entryDx=0;entryDy=0;exitX=0.948;exitY=0.245;exitDx=0;exitDy=0;exitPerimeter=0;entryPerimeter=0;" parent="1" source="27" target="26" edge="1">
                    <mxGeometry width="160" relative="1" as="geometry">
                        <mxPoint x="420" y="631.72" as="sourcePoint"/>
                        <mxPoint x="530.966991411009" y="590.0042712474618" as="targetPoint"/>
                    </mxGeometry>
                </mxCell>
                <mxCell id="38" value="SprÃ¡va zamÄstnancÅ¯" style="ellipse;whiteSpace=wrap;html=1;fillColor=#e3c800;strokeColor=#B09500;fontColor=#000000;" parent="1" vertex="1">
                    <mxGeometry x="920" y="535" width="150" height="80" as="geometry"/>
                </mxCell>
                <mxCell id="39" value="Zobrazit pÅehled trÅ¾eb" style="ellipse;whiteSpace=wrap;html=1;fillColor=#e3c800;strokeColor=#B09500;fontColor=#000000;" parent="1" vertex="1">
                    <mxGeometry x="920" y="715" width="150" height="80" as="geometry"/>
                </mxCell>
                <mxCell id="bFH8zaylMP56Cjdz0l-_-42" style="edgeStyle=orthogonalEdgeStyle;rounded=0;orthogonalLoop=1;jettySize=auto;html=1;exitX=0;exitY=0.3333333333333333;exitDx=0;exitDy=0;exitPerimeter=0;entryX=1;entryY=0.5;entryDx=0;entryDy=0;" parent="1" source="bFH8zaylMP56Cjdz0l-_-41" target="22" edge="1">
                    <mxGeometry relative="1" as="geometry"/>
                </mxCell>
                <mxCell id="Da8Sluo7u8tciYh-qTvK-41" style="rounded=0;orthogonalLoop=1;jettySize=auto;html=1;exitX=0;exitY=0.3333333333333333;exitDx=0;exitDy=0;exitPerimeter=0;entryX=0.5;entryY=0;entryDx=0;entryDy=0;" parent="1" source="bFH8zaylMP56Cjdz0l-_-41" target="2" edge="1">
                    <mxGeometry relative="1" as="geometry">
                        <Array as="points">
                            <mxPoint x="720" y="20"/>
                            <mxPoint x="345" y="20"/>
                        </Array>
                    </mxGeometry>
                </mxCell>
                <mxCell id="bFH8zaylMP56Cjdz0l-_-41" value="Äas" style="shape=umlActor;verticalLabelPosition=bottom;verticalAlign=top;html=1;" parent="1" vertex="1">
                    <mxGeometry x="860" y="180" width="50" height="90" as="geometry"/>
                </mxCell>
                <mxCell id="ImCl9rovs1i5wyOq3UeP-41" value="SprÃ¡va mÃ­stnostÃ­" style="ellipse;whiteSpace=wrap;html=1;fillColor=#e3c800;strokeColor=#B09500;fontColor=#000000;" parent="1" vertex="1">
                    <mxGeometry x="920" y="625" width="150" height="80" as="geometry"/>
                </mxCell>
                <mxCell id="vqx5k0jBY0WLTDmIteyV-41" value="SprÃ¡va zÃ¡honu" style="ellipse;whiteSpace=wrap;html=1;fillColor=#e3c800;strokeColor=#B09500;fontColor=#000000;" parent="1" vertex="1">
                    <mxGeometry x="920" y="445" width="150" height="80" as="geometry"/>
                </mxCell>
            </root>
        </mxGraphModel>
    </diagram>
</mxfile>